{"title":"Madly.In.Love.2010.FESTiVAL.RERiP.DVDRip.XviD-EXViD","uid":6481478,"size":728731793,"categoryP":"video","categoryS":"movies","magnet":"?xt=urn:btih:cc07edf29a14fee386c7852ba59ef9f0527d6994&amp;dn=Madly.In.Love.2010.FESTiVAL.RERiP.DVDRip.XviD-EXViD&amp;tr=udp%3A%2F%2Ftracker.openbittorrent.com%3A80&amp;tr=udp%3A%2F%2Fopen.demonii.com%3A1337&amp;tr=udp%3A%2F%2Ftracker.coppersurfer.tk%3A6969&amp;tr=udp%3A%2F%2Fexodus.desync.com%3A6969","seeders":1,"leechers":0,"uploader":"TvTeam","files":6,"time":1308535844,"description":". \n  &lt;a href=&quot;\nhttp://www.torrenting.com/&quot; rel=&quot;nofollow&quot; target=&quot;_NEW&quot;&gt;\nhttp://www.torrenting.com/&lt;/a&gt;        :     Greatest Movie Tracker on The Net!!!\n &lt;a href=&quot;\nhttp://www.Torrenting.com&quot; rel=&quot;nofollow&quot; target=&quot;_NEW&quot;&gt;\nhttp://www.Torrenting.com&lt;/a&gt;          :     Once &amp; For all ;)\n\n\n               www . Torrenting . Com \n\n(((((((((((((= Enjoy No RAR releases =))))))))))))))))))))\n\n\n...................................NFO:....................................\n\n.                                                                                                     \n       \n     \n     \n       \n       \n     \n     \n                                         \n                                         \n                EXVID                    \n                                         \n         \n                                         \n         Filled the Archives             \n                                         \n         \n                                         \n                With:                    \n                                         \n         \n                                         \n                                    \n     E240                           \n                                    \n     SP               (C) 2009      \n                                         \n     \n     \n     \n                                                                                  \n                                                                                   \n           Madly.In.Love.2010.FESTiVAL.RERiP.DVDRip.XviD-EXViD                      \n                                                                                   \n                                                                                  \n     \n                                                                                               \nEXViD aims to iNTERNAL those releases which have been lost in the archives.\nEXViD aims to PRE non-internal releases which have poor sources and are likely skipped by others.\n &lt;a href=&quot;\nhttp://www.imdb.com/title/tt1506965/&quot; rel=&quot;nofollow&quot; target=&quot;_NEW&quot;&gt;\nhttp://www.imdb.com/title/tt1506965/&lt;/a&gt;\nSubtitles: EN, FR\nDate: 2011.06\n\nDirector: Hilde Van Mieghem\n\nGenres: Comedy\n\nPlot:\nA frank and funny romantic comedy set in Antwerp, filmed in a quirkily inventive style, Madly in\nLove has a lot to say about human relationships. It focuses on the four women of the Miller family:\nteen daughter Eva, her mother Judith, aunt Barbara and older half-sister Michelle, as they work\ntheir way through the chaos called love. The result is a roller coaster ride of first crushes,\nlust, affairs, baby fever, and indestructible love. The four women are beautiful, courageous and\nsensible, but are also sometimes a bit lost. Can their male counterparts handle this dangerous\ncocktail of determination and female hormones?\n\nCast:\nKoen De Bouw \t ... \t Bert \nJan Decleir \t ... \t Bob \nHuub Stapel \t ... \t Theo \nVeerle Dobbelaere \t ... \t Judith \nMarie Vinck \t ... \t Michelle \nPierre Bokma \t ... \t Gerd Denolf \nKoen De Graeve \t ... \t Johan \nWine Dierickx \t ... \t Barbara \nKevin Janssens \t ... \t Mathias \nStef Aerts \t ... \t Fre \nMark Van Eeghem \t ... \t Frank \nLuk De Konink \t ... \t Karel Hoste \nMathijs Scheepers \t ... \t David \nKarlijn Sileghem \t ... \t Dokter Mermans \nEnrique De Roeck \t ... \t Louis \t\t\n\nStats:\nFormat                           : AVI\nFormat/Info                      : Audio Video Interleave\nFile size                        : 695 MiB\nDuration                         : 1h 26mn\nOverall bit rate                 : 1 122 Kbps\nWriting application              : VirtualDubMod 1.5.10.2 (build 2540/release)\nWriting library                  : VirtualDubMod build 2540/release\n\nVideo\nID                               : 0\nFormat                           : MPEG-4 Visual\nFormat profile                   : Advanced Simple@L5\nFormat settings, BVOP            : Yes\nFormat settings, QPel            : No\nFormat settings, GMC             : No warppoints\nFormat settings, Matrix          : Default (H.263)\nMuxing mode                      : Packed bitstream\nCodec ID                         : XVID\nCodec ID/Hint                    : XviD\nDuration                         : 1h 26mn\nBit rate                         : 980 Kbps\nWidth                            : 640 pixels\nHeight                           : 304 pixels\nDisplay aspect ratio             : 2.2:1\nFrame rate                       : 25.000 fps\nColor space                      : YUV\nChroma subsampling               : 4:2:0\nBit depth                        : 8 bits\nScan type                        : Progressive\nBits/(Pixel*Frame)               : 0.201\nStream size                      : 607 MiB (87%)\nWriting library                  : XviD 62\n\nAudio\nID                               : 1\nFormat                           : MPEG Audio\nFormat version                   : Version 1\nFormat profile                   : Layer 3\nMode                             : Joint stereo\nMode extension                   : MS Stereo\nCodec ID                         : 55\nCodec ID/Hint                    : MP3\nDuration                         : 1h 26mn\nBit rate mode                    : Variable\nBit rate                         : 128 Kbps\nChannel(s)                       : 2 channels\nSampling rate                    : 48.0 KHz\nStream size                      : 80.1 MiB (12%)\nAlignment                        : Aligned on interleaves\nInterleave, duration             : 24 ms (0.60 video frame)\nInterleave, preload duration     : 142 ms\nWriting library                  : LAME3.90.\nEncoding settings                : -m j -V 4 -q 2 -lowpass 17.6 --abr 128\n\n\n\n\nRelease notes:\nOops.\n\nenjoy!\n\nLooking for:\n75TB+ Archives\nDUTCH/FLEMiSH Archives\n                                                                                                    \nGreets: CRBS EPiSODE FiCO FLS iLS KLASSiGER LiPSYNC MADE NODLABS RUNNER SPRiNTER      \n   \n\n                                                                    ASCII DONE BY XX^NFO 2oo9","torrent":{"xt":"urn:btih:cc07edf29a14fee386c7852ba59ef9f0527d6994","amp;dn":"Madly.In.Love.2010.FESTiVAL.RERiP.DVDRip.XviD-EXViD","amp;tr":["udp%3A%2F%2Ftracker.openbittorrent.com%3A80","udp%3A%2F%2Fopen.demonii.com%3A1337","udp%3A%2F%2Ftracker.coppersurfer.tk%3A6969","udp%3A%2F%2Fexodus.desync.com%3A6969"],"infoHash":"cc07edf29a14fee386c7852ba59ef9f0527d6994","infoHashBuffer":{"type":"Buffer","data":[204,7,237,242,154,20,254,227,134,199,133,43,165,158,249,240,82,125,105,148]},"announce":[],"urlList":[]}}